<mxfile host="app.diagrams.net" modified="2021-02-24T04:03:50.811Z" agent="5.0 (Macintosh; Intel Mac OS X 10_11_6) AppleWebKit/537.36 (KHTML, like Gecko) Chrome/88.0.4324.182 Safari/537.36" etag="gvPbJo0ZcON2dZ7k3WiU" version="14.4.2" type="github">
  <diagram id="YhF1iU70QGonE3nJ6nje" name="Page-1">
    <mxGraphModel dx="753" dy="547" grid="1" gridSize="10" guides="1" tooltips="1" connect="1" arrows="1" fold="1" page="1" pageScale="1" pageWidth="827" pageHeight="1169" math="0" shadow="0">
      <root>
        <mxCell id="0" />
        <mxCell id="1" parent="0" />
        <mxCell id="DaVIIo-JqU9Ed_Sul6Xr-1" value="" style="rounded=0;whiteSpace=wrap;html=1;strokeColor=none;fillColor=#0000CC;shadow=1;glass=1;" vertex="1" parent="1">
          <mxGeometry x="60" y="120" width="690" height="460" as="geometry" />
        </mxCell>
        <mxCell id="DaVIIo-JqU9Ed_Sul6Xr-2" value="" style="rounded=1;whiteSpace=wrap;html=1;shadow=1;glass=1;fillColor=#fff2cc;strokeColor=#d6b656;" vertex="1" parent="1">
          <mxGeometry x="130" y="180" width="120" height="60" as="geometry" />
        </mxCell>
        <mxCell id="DaVIIo-JqU9Ed_Sul6Xr-3" value="" style="rounded=1;whiteSpace=wrap;html=1;shadow=1;glass=1;fillColor=#e1d5e7;strokeColor=#9673a6;" vertex="1" parent="1">
          <mxGeometry x="130" y="290" width="120" height="60" as="geometry" />
        </mxCell>
      </root>
    </mxGraphModel>
  </diagram>
</mxfile>
